PathFileType	4	(X/Y/Z)	Patient4_TMGait_0pt4_01_left_17.trc.trc
DataRate	CameraRate	NumFrames	NumMarkers	Units	OrigDataRate	OrigDataStartFrame	OrigNumFrames
378.378378378377	378.378378378377	6	33	mm	378.378378378377	89	       141
Frame#	Time	Sacral			L.Shoulder			Chest			R.Shoulder			Neck			R.ASIS			L.ASIS			R.Thigh.Superior			R.Thigh.Lateral			R.Thigh.Inferior			R.Patella			L.Thigh.Superior			L.Thigh.Lateral			L.Thigh.Inferior			L.Patella			L.Shank.Superior			L.Shank.Lateral			L.Shank.Inferior			R.Shank.Superior			R.Shank.Lateral			R.Shank.Inferior			R.Heel			R.Midfoot.Superior			R.Midfoot.Lateral			R.Toe			L.Heel			L.Midfoot.Lateral			L.Midfoot.Superior			L.Toe			L.Elbow			L.Wrist			R.Elbow			R.Wrist			
		X1	Y1	Z1	X2	Y2	Z2	X3	Y3	Z3	X4	Y4	Z4	X5	Y5	Z5	X6	Y6	Z6	X7	Y7	Z7	X8	Y8	Z8	X9	Y9	Z9	X10	Y10	Z10	X11	Y11	Z11	X12	Y12	Z12	X13	Y13	Z13	X14	Y14	Z14	X15	Y15	Z15	X16	Y16	Z16	X17	Y17	Z17	X18	Y18	Z18	X19	Y19	Z19	X20	Y20	Z20	X21	Y21	Z21	X22	Y22	Z22	X23	Y23	Z23	X24	Y24	Z24	X25	Y25	Z25	X26	Y26	Z26	X27	Y27	Z27	X28	Y28	Z28	X29	Y29	Z29	X30	Y30	Z30	X31	Y31	Z31	X32	Y32	Z32	X33	Y33	Z33	

89	21.452571428571	709.035876473895	1008.878599776992	470.978152364590	864.327501278423	1436.829025673642	277.611215780393	998.326186764252	1361.612719225482	410.380428839122	958.152804693373	1431.507334082670	601.303274213210	888.595473078553	1494.197576065455	441.634284385729	954.052862420471	937.169541476607	546.438437837358	896.369901683274	968.583466550087	279.309477975812	965.890047487526	730.066660289068	511.428764086246	882.385474634490	627.029220868054	583.842584676371	941.761485368390	569.359307342211	495.767663749345	931.602058733405	482.734329996418	502.745661194895	974.185218629872	779.355544794660	294.286876132407	919.673511118804	655.265293782713	214.919873336271	1025.199958258816	592.189589149222	267.512798906014	1050.621179304726	525.633319426564	258.900054704429	1028.122317232944	453.199945882532	246.999263961252	949.266917348694	332.587009367006	191.157258948599	1027.920008959244	223.123345600266	238.695752865271	896.611841471101	395.444056784805	511.054980739841	820.761200323056	297.636967606125	578.332002856831	846.826278222702	201.000900151465	510.162543241525	697.616245298723	42.579592610007	486.174700038082	871.041542262763	94.764635545610	514.913623860975	783.598821902521	36.541391920593	557.845258266078	991.448916663915	39.797234389505	539.311885337739	931.445604152576	46.592569681817	269.692928402320	1003.341470740945	53.310099856190	187.880916952440	1077.486041929699	127.998789602846	210.935395279270	1209.184027294213	96.406172274240	179.042861443411	740.556582298876	1101.370897455062	185.506943812313	732.586393566217	845.694215154721	142.964921071243	1057.647377734593	1097.918528612284	709.137944581267	1300.322304006448	1048.956188207129	644.824677558434	
90	21.455214285714	708.854039660387	1008.982711545980	470.781770112107	864.010239840702	1436.836844527573	277.286935595438	998.166405983959	1361.598889735138	409.886187846590	958.198205816452	1431.473354558747	600.839644583636	888.475143158306	1494.194405571971	441.247049993030	953.975955097641	937.136671689725	546.024757107169	896.087593188597	968.569526152907	278.949998761594	965.466201896755	729.939344840643	511.126920046957	881.743638521374	627.024262479393	583.617105761675	940.980419919894	569.233302025393	495.569520402387	930.670020315962	482.674152150508	502.549519032803	974.010066580806	779.426904045051	294.050975038859	919.434363443260	655.186806805583	214.873374256983	1024.941792242886	592.189802977951	267.483643812381	1050.387481818881	525.627272295964	258.847451084383	1027.904332665167	453.136453782897	247.017009579487	949.030625927930	332.409287768801	191.455975165203	1027.823475337477	223.046774436369	238.993514312127	895.680499671155	395.443858657387	510.930923480187	819.794238837495	297.667151131097	578.274977241992	845.797607879559	200.981111064421	510.133082355016	696.543293318601	42.587372394525	486.186826817685	869.990483632441	94.782445183561	514.958099480311	782.545437156494	36.545368876743	557.869262595580	990.380999960557	39.797885363564	539.303524443523	931.530291735961	46.449754952099	270.358446494729	1003.243743498299	53.183925830524	188.390409030791	1077.371532722784	127.958447065990	211.237802923879	1209.029186961150	96.472553249351	179.058364917773	740.102340911199	1101.445950986971	185.152606509950	732.639816648756	845.778043223448	142.266096983514	1057.604625476399	1097.827140565333	708.551056286837	1300.227149985006	1049.197212520067	643.957291240302	
91	21.457857142857	708.680811551069	1009.082436120041	470.577649801529	863.699234649536	1436.842909248413	276.952059784856	998.007901330953	1361.585822465861	409.386813141498	958.235477218054	1431.439393093414	600.365438108305	888.354858132796	1494.191809068035	440.849674517341	953.901880794981	937.102457271452	545.613459845483	895.814639960160	968.550368446931	278.589187714194	965.046127427679	729.808332028389	510.836922477165	881.093950708732	627.021798757365	583.393354858150	940.196400879837	569.106892300721	495.373728992572	929.735576354566	482.614774003143	502.354878266921	973.826370105951	779.485973726065	293.814121958281	919.187364138467	655.099980105432	214.821211883929	1024.678051025601	592.182118966495	267.448938770665	1050.143510066022	525.608523588024	258.792218868194	1027.671641718586	453.057889740236	247.034781227089	948.761326212108	332.223935930094	191.764612374503	1027.688172176136	222.955700117125	239.297684434863	894.742414698752	395.441561856456	510.807369474671	818.836534440260	297.703302454652	578.233696946812	844.768354848970	200.961277832527	510.103233647748	695.473055610149	42.596506059326	486.198486236561	868.938144390028	94.798981490730	515.000293921318	781.486306153948	36.543108791968	557.884674900220	989.312766197558	39.797521800557	539.295071787231	931.556064053469	46.305979848350	271.039034161493	1003.088058652196	53.044052831418	188.914924047473	1077.206505845580	127.893682115601	211.550622302488	1208.818700007227	96.500238216411	179.085282926028	739.658014826130	1101.518178828060	184.791890928990	732.724884818506	845.860209199575	141.558449276752	1057.548873027079	1097.736553056460	707.958871309546	1300.113270227277	1049.403609296110	643.086059079347	
92	21.460500000000	708.518153591566	1009.174513814752	470.365959152248	863.395180489800	1436.847409258548	276.606704894883	997.850722400155	1361.573533705274	408.882630261754	958.265875584356	1431.407152651789	599.882176471320	888.233953711828	1494.189719036405	440.442402496039	953.830027655348	937.065792004456	545.203432164107	895.551226065705	968.525516111428	278.227161825832	964.630063884568	729.672977576390	510.557897554162	880.438708734092	627.023615685198	583.172637877673	939.409887941964	568.980315927314	495.179949963150	928.799631414677	482.556447991778	502.161119767151	973.633002466848	779.531478377311	293.576522818019	918.932054377269	655.003947724643	214.763397860308	1024.409581281655	592.166453971943	267.408598792170	1049.889173459346	525.576728805292	258.734882548979	1027.424468064555	452.963429341288	247.052784576801	948.460188659613	332.029895582068	192.082560535670	1027.514890130511	222.849756742565	239.608771328359	893.795167884602	395.434652205891	510.681234659755	817.890913736659	297.746984494422	578.210378528335	843.738366786477	200.943124917627	510.071609770214	694.405846779716	42.606770155994	486.209839985839	867.881197710292	94.811501879974	515.036262825013	780.420028205608	36.533827923899	557.889488024487	988.244012208470	39.795218554198	539.287145768309	931.524375846779	46.161144070483	271.735670303755	1002.874795332976	52.890951188402	189.454590465073	1076.991625605447	127.803831362101	211.874710706873	1208.552983881090	96.488111452606	179.124470298590	739.223819844577	1101.586891066328	184.425446557511	732.841116153950	845.940446680201	140.841997361899	1057.478946177595	1097.645337819492	707.358573009674	1299.981048151585	1049.575949110928	642.211108036166	
93	21.463142857143	708.367063548821	1009.256662006920	470.146110390884	863.098801981556	1436.850446475131	276.250733136186	997.695057739060	1361.561915812640	408.373792817628	958.290885625164	1431.378193866817	599.391420342933	888.111839552095	1494.187879911058	440.025348347385	953.759805116120	937.025765634192	544.793565990868	895.297533181586	968.494490233143	277.863861907249	964.218223521861	729.532915262701	510.289069505109	879.780174904538	627.031061076575	582.955891501058	938.621341550830	568.853839904853	494.987961175808	927.863092111226	482.499288437171	501.967814016746	973.429139588919	779.561980578156	293.338398468589	918.667957720156	654.897630868329	214.700149032836	1024.137014759578	592.142526123281	267.362422881760	1049.624418724810	525.531419082489	258.675589680313	1027.162838738218	452.852356003391	247.071170041371	948.128289315361	331.826039127458	192.409323325862	1027.304180784517	222.728395910544	239.927387332188	892.838074531179	395.421768118508	510.550691347936	816.957791859403	297.799032017464	578.204537184486	842.707616317266	200.927990841932	510.037408625972	693.341614714351	42.617975694298	486.220952924809	866.817254500863	94.817913171277	515.062840415670	779.346039165431	36.517779078309	557.883438795785	987.174575436806	39.790390848449	539.280247899493	931.436612918652	46.014925482102	272.449338550870	1002.604254741003	52.724691399843	190.009667809658	1076.727631934652	127.688528522735	212.210761093102	1208.232553305367	96.434953757776	179.176595781705	738.799904756503	1101.651412992015	184.053694992455	732.988104331013	846.018348666297	140.116690738845	1057.394106930368	1097.552266604340	706.748070695420	1299.830892420843	1049.714632833872	641.332213145735	
94	21.465785714286	708.226322781697	1009.328845260559	469.915778152145	862.810892364162	1436.851921558076	275.883421761575	997.541415478451	1361.550576118795	407.860058995270	958.312516492121	1431.353750015253	598.894820059408	887.988095384086	1494.185603624093	439.598327222814	953.690671590907	936.981918609758	544.382766630129	895.053737484111	968.456808236105	277.498823561449	963.810755230903	729.388418374262	510.029888066489	879.120530499074	627.044474979262	582.743203197948	937.831223877818	568.727798484717	494.797810548209	926.926869772809	482.443091999281	501.774967599260	973.214653507904	779.575670408301	293.100004082989	918.394557220158	654.779461227553	214.632154205047	1023.860488889521	592.109596485762	267.309943235856	1049.349278405658	525.471839515168	258.613620875526	1026.886328522229	452.724201148343	247.089960938590	947.766487078486	331.611079517376	192.744665967373	1027.056045871035	222.590649473920	240.254384542995	891.874437980847	395.404198898422	510.416801447635	816.032037686584	297.858605084468	578.209475135481	841.676363489862	200.916326487676	510.001174168506	692.279463866851	42.630012935933	486.231667204847	865.746082403500	94.817615785364	515.078651616324	778.265698890913	36.497599064807	557.870275106510	986.104386726765	39.783236740148	539.274610860489	931.294002516117	45.866491735486	273.181033406820	1002.276558841979	52.544424374394	190.580717046100	1076.415438698587	127.548090644134	212.559088454121	1207.858146727512	96.339307939542	179.241900138237	738.386264230375	1101.711104859676	183.676533693661	733.165616895580	846.093184795445	139.382318115909	1057.294620550227	1097.456571186929	706.126943315367	1299.663269759134	1049.819671019069	640.448340033437	
